# xmcd
#
# Track frame offsets: 
#        150
#        23772
#        47432
#        71892
#        92955
#        110137
#        140357
#        143275
#        166080
#        185122
#        208245
#        229735
#        262855
#        268557
#        292152
#        318185
#
# Disc length: 4363 seconds
#
# Revision: 0
# Processed by: cddbd v1.5.2PL0 Copyright (c) Steve Scherf et al.
# Submitted via: ExactAudioCopy v0.99pb4
#
DISCID=eb110910
DTITLE=Charles Billingsley - God of the Ages
DYEAR=2009
DGENRE=Gospel
TTITLE0=God of the Ages
TTITLE1=O God, Our Help in Ages Past
TTITLE2=Everywhere I Go
TTITLE3=Bless the Day
TTITLE4=Christ is Able
TTITLE5=When I Don't Know What to Do 
TTITLE6=I Need Thee
TTITLE7=I Need Thee (Hear My Cry)
TTITLE8=You're Worthy of My Praise 
TTITLE9=You Still Love Me
TTITLE10=Be Thou My Vision
TTITLE11=Lord I Run to You
TTITLE12=Moment of Decision
TTITLE13=The Alter 
TTITLE14=The Lord's Prayer
TTITLE15=The Lord's Prayer (Reprise)
EXTD=
EXTT0=
EXTT1=
EXTT2=
EXTT3=
EXTT4=
EXTT5=
EXTT6=
EXTT7=
EXTT8=
EXTT9=
EXTT10=
EXTT11=
EXTT12=
EXTT13=
EXTT14=
EXTT15=
PLAYORDER=
